<svg width="20" height="20" viewBox="0 0 20 20" fill="none" xmlns="http://www.w3.org/2000/svg">
<path d="M0.924056 0.923504C1.18155 0.666015 1.58672 0.646209 1.86693 0.864083L1.93422 0.923504L19.0774 18.0664C19.3563 18.3453 19.3563 18.7976 19.0774 19.0765C18.8199 19.334 18.4147 19.3538 18.1345 19.1359L18.0672 19.0765L0.924056 1.93366C0.645106 1.65471 0.645106 1.20245 0.924056 0.923504Z" fill="white"/>
<path d="M19.0759 0.923504C18.8185 0.666015 18.4133 0.646209 18.1331 0.864083L18.0658 0.923504L0.922648 18.0664C0.643698 18.3453 0.643698 18.7976 0.922648 19.0765C1.18014 19.334 1.58531 19.3538 1.86553 19.1359L1.93282 19.0765L19.0759 1.93366C19.3549 1.65471 19.3549 1.20245 19.0759 0.923504Z" fill="white"/>
</svg>
