<svg width="17" height="17" viewBox="0 0 17 17" fill="none" xmlns="http://www.w3.org/2000/svg">
<path d="M8.33332 0C8.63858 0 8.89018 0.229794 8.92456 0.525829L8.92856 0.595238V7.7381H16.0714C16.4001 7.7381 16.6666 8.00459 16.6666 8.33333C16.6666 8.63859 16.4369 8.89019 16.1408 8.92457L16.0714 8.92857H8.92856V16.0714C8.92856 16.4002 8.66206 16.6667 8.33332 16.6667C8.02806 16.6667 7.77647 16.4369 7.74208 16.1409L7.73809 16.0714V8.92857H0.595237C0.266497 8.92857 0 8.66207 0 8.33333C0 8.02807 0.229775 7.77649 0.52581 7.74211L0.595237 7.7381H7.73809V0.595238C7.73809 0.266497 8.00458 0 8.33332 0Z" fill="#3D3D3C"/>
</svg>
