<svg width="20" height="20" viewBox="0 0 20 20" fill="none" xmlns="http://www.w3.org/2000/svg">
<path d="M14.0092 13.0069L14.0765 13.0664L19.7908 18.7806C20.0697 19.0596 20.0697 19.5118 19.7908 19.7908C19.5333 20.0483 19.1281 20.0681 18.8479 19.8502L18.7806 19.7908L13.0663 14.0765C12.7874 13.7976 12.7874 13.3453 13.0663 13.0664C13.3238 12.8089 13.729 12.7891 14.0092 13.0069ZM6.78571 0C10.5334 0 13.5714 3.03807 13.5714 6.78571C13.5714 10.5334 10.5334 13.5714 6.78571 13.5714C3.03807 13.5714 0 10.5334 0 6.78571C0 3.03807 3.03807 0 6.78571 0ZM6.78571 1.42857C3.82704 1.42857 1.42857 3.82704 1.42857 6.78571C1.42857 9.74438 3.82704 12.1428 6.78571 12.1428C9.74438 12.1428 12.1428 9.74438 12.1428 6.78571C12.1428 3.82704 9.74438 1.42857 6.78571 1.42857Z" fill="#3D3D3C"/>
</svg>
